<svg height="102" width="50" xmlns="http://www.w3.org/2000/svg">
<path stroke="#ffffff" d="m-1-1h52v104h-52z" fill="none"/>
<path stroke="#ffffff" d="m42.12158 5.98823h-34c-2.2 0-4 1.8-4 4v83c0 2.2 1.8 4 4 4h34c2.2 0 4-1.8 4-4v-83c0-2.2-1.8-4-4-4zm3 87c0 1.7-1.3 3-3 3h-34c-1.7 0-3-1.3-3-3v-83c0-1.7 1.3-3 3-3h34c1.7 0 3 1.3 3 3z"/>
<path stroke="#ffffff" d="m48.32158 27.88823h-.2v-21c0-3-2.5-5.5-5.5-5.5h-35c-3 0-5.5 2.5-5.5 5.5v10.5h-.2c-.1 0-.1 0-.1.1v12.6c0 .1 0 .1.1.1h.2v5.1h-.2c-.1 0-.1 0-.1.1v7.1c0 .1 0 .1.1.1h.2v52.8c0 3 2.5 5.5 5.5 5.5h35.1c3 0 5.5-2.5 5.5-5.5v-60.2h.2c.1 0 .1 0 .1-.1v-7.1c-.1-.1-.1-.1-.2-.1zm-1.2 67.5c0 2.5-2 4.5-4.5 4.5h-35c-2.5 0-4.5-2-4.5-4.5v-88.6c0-2.5 2-4.5 4.5-4.5h35.1c2.5 0 4.5 2 4.5 4.5v88.6z"/>
<path stroke="#ffffff" d="m22.02158 4.18823c0 .1.2.2.3.2h5.5c.1 0 .2-.1.3-.2l.1-.2c.1-.2 0-.4-.2-.4h-5.9c-.2 0-.3.2-.2.4z"/></svg>